<?xml version="1.0" encoding="UTF-8" standalone="no"?><!DOCTYPE svg PUBLIC "-//W3C//DTD SVG 1.1//EN" "http://www.w3.org/Graphics/SVG/1.1/DTD/svg11.dtd"><svg width="100%" height="100%" viewBox="0 0 4034 943" version="1.1" xmlns="http://www.w3.org/2000/svg" xmlns:xlink="http://www.w3.org/1999/xlink" xml:space="preserve" xmlns:serif="http://www.serif.com/" style="fill-rule:evenodd;clip-rule:evenodd;stroke-linejoin:round;stroke-miterlimit:2;"><g id="Layer-1" serif:id="Layer 1"><rect x="969.128" y="215.18" width="117.281" height="570.767" style="fill:#fff;fill-rule:nonzero;"/><path d="M1242.78,360.609c38.311,-0 70.368,-32.057 70.368,-70.369c0,-38.312 -32.057,-70.368 -70.368,-70.368c-38.312,-0 -70.369,32.056 -70.369,70.368c-0,38.312 32.057,70.369 70.369,70.369Zm-58.641,425.339l117.281,-0l0,-390.937l-117.281,0l0,390.937Z" style="fill:#fff;fill-rule:nonzero;"/><path d="M1506.28,509.164c-0,-14.073 12.51,-21.892 32.838,-21.892c25.802,0 41.44,14.074 52.386,34.402l100.08,-53.949c-32.839,-55.513 -89.134,-83.66 -152.466,-83.66c-81.314,-0 -153.247,43.003 -153.247,128.227c0,135.264 192.341,112.59 192.341,155.593c0,15.637 -14.074,24.238 -42.221,24.238c-34.403,-0 -56.295,-16.42 -66.459,-46.131l-101.644,57.859c30.493,63.332 89.916,93.043 168.103,93.043c84.442,-0 162.629,-38.312 162.629,-128.227c0,-144.647 -192.34,-114.936 -192.34,-159.503Z" style="fill:#fff;fill-rule:nonzero;"/><path d="M1986.35,507.601l-0,-112.59l-80.533,0l-0,-109.462l-117.281,35.184l-0,74.278l-62.55,0l-0,112.59l62.55,-0l-0,138.391c-0,109.462 44.567,155.593 197.814,139.956l-0,-106.335c-51.604,3.127 -80.533,-0 -80.533,-33.621l-0,-138.391l80.533,-0Z" style="fill:#fff;fill-rule:nonzero;"/><path d="M2189.63,464.598l-0,-69.587l-117.281,0l-0,390.937l117.281,-0l-0,-176.704c-0,-77.405 68.804,-96.952 117.281,-89.133l-0,-132.919c-49.258,0 -101.644,25.02 -117.281,77.406Z" style="fill:#fff;fill-rule:nonzero;"/><path d="M2490.65,464.598l-0,-69.587l-117.281,0l-0,390.937l117.281,-0l-0,-176.704c-0,-77.405 68.805,-96.952 117.281,-89.133l-0,-132.919c-49.258,0 -101.644,25.02 -117.281,77.406Z" style="fill:#fff;fill-rule:nonzero;"/><path d="M2686.12,796.894c40.657,-0 74.278,-33.621 74.278,-74.278c-0,-40.658 -33.621,-74.278 -74.278,-74.278c-40.657,-0 -74.278,33.62 -74.278,74.278c0,40.657 33.621,74.278 74.278,74.278Z" style="fill:#fff;fill-rule:nonzero;"/><path d="M3084.09,384.065c-52.385,-0 -90.697,17.983 -116.499,47.694l0,-36.748l-117.281,0l0,547.311l117.281,0l0,-193.123c25.802,29.712 64.114,47.695 116.499,47.695c102.426,-0 186.868,-89.916 186.868,-206.415c-0,-116.499 -84.442,-206.414 -186.868,-206.414Zm-23.456,301.803c-53.949,-0 -93.043,-36.748 -93.043,-95.389c0,-58.64 39.094,-95.388 93.043,-95.388c53.949,-0 93.043,36.748 93.043,95.388c-0,58.641 -39.094,95.389 -93.043,95.389Z" style="fill:#fff;fill-rule:nonzero;"/><path d="M3466.43,464.598l0,-69.587l-117.281,0l0,390.937l117.281,-0l0,-176.704c0,-77.405 68.805,-96.952 117.281,-89.133l0,-132.919c-49.258,0 -101.643,25.02 -117.281,77.406Z" style="fill:#fff;fill-rule:nonzero;"/><path d="M3826.09,796.894c114.935,-0 207.196,-89.916 207.196,-206.415c-0,-116.499 -92.261,-206.414 -207.196,-206.414c-114.936,-0 -207.197,89.915 -207.197,206.414c0,116.499 92.261,206.415 207.197,206.415Zm-0,-114.154c-50.822,0 -89.916,-36.748 -89.916,-92.261c0,-55.513 39.094,-92.261 89.916,-92.261c50.821,0 89.915,36.748 89.915,92.261c0,55.513 -39.094,92.261 -89.915,92.261Z" style="fill:#fff;fill-rule:nonzero;"/><path d="M655.182,248.739c-0,158.85 -91.763,295.513 -222.259,354.229c-0.2,0.071 -0.466,0.205 -0.733,0.338c-8.246,3.683 -16.692,7.042 -25.271,10.121l-0.071,-0c-6.366,2.279 -12.795,4.421 -19.366,6.304c42.625,57.837 68.433,130.296 69.504,209.05c156.842,-43.163 272.929,-193.838 272.929,-372.533c0,-88.138 -28.217,-169.438 -75.667,-234.388c0.667,8.85 0.934,17.829 0.934,26.879Z" style="fill:url(#_Linear1);fill-rule:nonzero;"/><path d="M655.184,248.737c-0,158.854 -91.763,295.516 -222.259,354.233c45.713,-23.658 78.821,-70.446 85.592,-125.742c0.871,-6.837 1.271,-13.875 1.271,-20.979c-0,-64.008 -35.054,-119.504 -85.992,-146.25c-20.779,-10.925 -44.171,-17.092 -68.837,-17.092c-41.688,0 -79.492,17.425 -107.309,45.713l0,-250.342c33.917,-11.062 69.975,-17.025 107.309,-17.025c107.375,0 204.029,49.129 270.858,127.284c6.433,7.504 12.596,15.279 18.429,23.32c0.671,8.85 0.938,17.834 0.938,26.88" style="fill:#0b7cf5;fill-rule:nonzero;"/><path d="M209.863,0.002l-0,246.792c-0,-0.134 -0.071,-0.338 -0.071,-0.471l-1.675,-0l0,-246.321l1.746,0Z" style="fill:#0b7cf5;fill-rule:nonzero;"/><path d="M0.002,456.247c0,17.901 1.138,35.392 3.421,52.617c2.413,18.904 6.163,37.333 11.125,55.229c11.596,41.959 29.892,80.967 53.417,115.688c36.262,53.421 85.058,96.654 141.896,124.871c7.842,3.887 15.75,7.437 23.925,10.725c7.779,3.287 15.754,6.229 23.867,8.779c33.916,11.058 69.975,17.025 107.308,17.025c13.337,-0 26.546,-0.738 39.479,-2.279c0.062,-1.609 0.062,-3.213 0.062,-4.825c0,-92.9 -41.016,-175.813 -104.895,-229.767c-1.809,-0.871 -3.613,-1.808 -5.363,-2.75l-0.067,0c-13,-2.679 -25.804,-6.029 -38.27,-10.117c-8.109,-2.545 -16.088,-5.429 -23.859,-8.716c-8.179,-3.284 -16.087,-6.834 -23.929,-10.725c-93.771,-46.58 -165.821,-134.117 -195.317,-240.555c-4.958,-17.895 -8.708,-36.329 -11.125,-55.229c-0.67,-5.091 -1.27,-10.254 -1.675,-15.483l0,195.512Z" style="fill:url(#_Linear2);fill-rule:nonzero;"/><path d="M294.179,601.563c-13.004,-2.684 -25.804,-6.034 -38.275,-10.121c-8.108,-2.546 -16.083,-5.429 -23.858,-8.713c-8.175,-3.287 -16.088,-6.837 -23.929,-10.725c-93.767,-46.583 -165.821,-134.121 -195.313,-240.558c-4.958,-17.896 -8.712,-36.325 -11.125,-55.229c-0.671,-5.092 -1.275,-10.255 -1.679,-15.484l-0,-260.733l208.117,-0l-0,246.325l1.679,-0c-0,0.133 0.067,0.333 0.067,0.467l1.674,232.179c0.8,6.166 2.009,12.333 3.484,18.3c3.087,12.4 7.441,24.196 13.071,35.321c1.808,3.487 3.687,6.971 5.695,10.325c6.705,11.325 14.75,21.716 23.863,30.962l2.546,2.55c10.125,9.854 21.517,18.363 33.983,25.133" style="fill:#0b7cf5;fill-rule:nonzero;"/><path d="M294.179,601.563c-13.004,-2.684 -25.804,-6.034 -38.275,-10.121c-8.108,-2.546 -16.083,-5.429 -23.858,-8.713c-8.175,-3.287 -16.088,-6.837 -23.929,-10.725c-93.767,-46.583 -165.821,-134.121 -195.313,-240.558c-4.958,-17.896 -8.712,-36.325 -11.125,-55.229c-0.671,-5.092 -1.275,-10.255 -1.679,-15.484l-0,-48.458c0.404,5.229 1.008,10.387 1.679,15.483c2.413,18.9 6.167,37.334 11.125,55.229c29.492,106.438 101.546,193.975 195.313,240.559c6.57,3.283 13.208,6.3 19.975,9.046c1.808,3.487 3.687,6.97 5.695,10.325c6.705,11.325 14.75,21.716 23.863,30.962l2.546,2.55c10.125,9.854 21.517,18.363 33.983,25.133" style="fill:#0062ba;fill-rule:nonzero;"/><path d="M655.184,248.737c-0,158.854 -91.763,295.516 -222.259,354.233c45.713,-23.658 78.821,-70.446 85.592,-125.742c71.317,-69.504 116.292,-168.637 117.3,-278.691c6.433,7.504 12.596,15.279 18.429,23.32c0.671,8.85 0.938,17.834 0.938,26.88" style="fill:#0062ba;fill-rule:nonzero;"/><path d="M209.887,804.653l0,55.029c-6.766,-2.95 -13.6,-6.1 -20.304,-9.454c-75.004,-37.267 -136.937,-96.983 -178.691,-170.446c-3.825,-6.637 -7.442,-13.408 -10.859,-20.308l0,-203.225c0,17.896 1.138,35.391 3.417,52.616c2.412,18.9 6.167,37.334 11.125,55.23c11.592,41.958 29.896,80.966 53.421,115.687c36.258,53.421 85.058,96.654 141.891,124.871" style="fill:#0062ba;fill-rule:nonzero;"/><path d="M209.887,859.682l0,52.746l-209.854,-0l0,-252.954c3.417,6.9 7.034,13.671 10.859,20.308c41.754,73.463 103.687,133.179 178.691,170.446c6.704,3.354 13.538,6.504 20.304,9.454" style="fill:#0b7cf5;fill-rule:nonzero;"/></g><defs><linearGradient id="_Linear1" x1="0" y1="0" x2="1" y2="0" gradientUnits="userSpaceOnUse" gradientTransform="matrix(-58.1692,570.92,-570.92,-58.1692,584.12,298.887)"><stop offset="0" style="stop-color:#c7fffa;stop-opacity:1"/><stop offset="1" style="stop-color:#00f1f4;stop-opacity:1"/></linearGradient><linearGradient id="_Linear2" x1="0" y1="0" x2="1" y2="0" gradientUnits="userSpaceOnUse" gradientTransform="matrix(404.5,0,0,404.5,0.00276875,550.958)"><stop offset="0" style="stop-color:#c7fffa;stop-opacity:1"/><stop offset="1" style="stop-color:#00f1f4;stop-opacity:1"/></linearGradient></defs></svg>